<mxfile host="app.diagrams.net" modified="2024-07-17T09:33:54.461Z" agent="Mozilla/5.0 (Windows NT 10.0; Win64; x64) AppleWebKit/537.36 (KHTML, like Gecko) Chrome/126.0.0.0 Safari/537.36" etag="MBnce86Wgr-X45PMqNb1" border="50" scale="3" compressed="false" locked="false" version="24.6.5" type="github">
  <diagram name="Blank" id="YmL12bMKpDGza6XwsDPr">
    <mxGraphModel dx="2074" dy="1291" grid="0" gridSize="10" guides="1" tooltips="1" connect="1" arrows="1" fold="1" page="0" pageScale="1" pageWidth="827" pageHeight="1169" background="none" math="1" shadow="0">
      <root>
        <mxCell id="X5NqExCQtvZxIxQ7pmgY-0" />
        <mxCell id="1" parent="X5NqExCQtvZxIxQ7pmgY-0" />
        <mxCell id="Gr0Zq-AI6Quabplr0KPa-179" value="Mindmap" style="swimlane;html=1;startSize=20;horizontal=1;containerType=tree;labelBackgroundColor=none;strokeColor=#D4E1F5;strokeWidth=1;fillColor=none;fontFamily=Comic Sans MS;fontSize=9;swimlaneLine=0;dashed=1;collapsible=0;" parent="1" vertex="1">
          <mxGeometry x="-354" y="-10" width="1325" height="767" as="geometry" />
        </mxCell>
        <mxCell id="Gr0Zq-AI6Quabplr0KPa-180" value="&lt;font face=&quot;Comic Sans MS&quot;&gt;MIND&lt;br&gt;MAPPING&lt;/font&gt;" style="ellipse;whiteSpace=wrap;html=1;align=center;container=1;recursiveResize=0;treeFolding=1;strokeWidth=2;" parent="Gr0Zq-AI6Quabplr0KPa-179" vertex="1">
          <mxGeometry x="234" y="307" width="108" height="53" as="geometry" />
        </mxCell>
        <mxCell id="Gr0Zq-AI6Quabplr0KPa-223" style="jumpStyle=arc;html=1;endArrow=classicThin;endFill=1;jettySize=auto;orthogonalLoop=1;strokeColor=none;strokeWidth=2;fontFamily=Comic Sans MS;fontSize=10;rounded=0;startSize=8;endSize=8;curved=1;" parent="Gr0Zq-AI6Quabplr0KPa-179" edge="1">
          <mxGeometry relative="1" as="geometry">
            <mxPoint x="193" y="120.5" as="sourcePoint" />
            <mxPoint x="172.07554645979917" y="102.23865872855208" as="targetPoint" />
          </mxGeometry>
        </mxCell>
      </root>
    </mxGraphModel>
  </diagram>
</mxfile>
